<?xml version="1.0" encoding="UTF-8" standalone="no"?>
<svg
   width="40"
   height="40"
   viewBox="0 0 40 40"
   fill="none"
   version="1.1"
   id="svg4"
   sodipodi:docname="icon.svg"
   inkscape:version="1.4.2 (ebf0e940, 2025-05-08)"
   xmlns:inkscape="http://www.inkscape.org/namespaces/inkscape"
   xmlns:sodipodi="http://sodipodi.sourceforge.net/DTD/sodipodi-0.dtd"
   xmlns="http://www.w3.org/2000/svg"
   xmlns:svg="http://www.w3.org/2000/svg">
  <sodipodi:namedview
     id="namedview4"
     pagecolor="#ffffff"
     bordercolor="#000000"
     borderopacity="0.25"
     inkscape:showpageshadow="2"
     inkscape:pageopacity="0.0"
     inkscape:pagecheckerboard="0"
     inkscape:deskcolor="#d1d1d1"
     inkscape:zoom="9.7"
     inkscape:cx="19.123711"
     inkscape:cy="20.618557"
     inkscape:window-width="1488"
     inkscape:window-height="935"
     inkscape:window-x="0"
     inkscape:window-y="25"
     inkscape:window-maximized="0"
     inkscape:current-layer="svg4" />
  <defs
     id="defs2">
    <linearGradient
       id="icon-gradient"
       x1="0"
       y1="0"
       x2="40"
       y2="40"
       gradientUnits="userSpaceOnUse">
      <stop
         offset="0%"
         stop-color="#14b8a6"
         id="stop1" />
      <stop
         offset="100%"
         stop-color="#10b981"
         id="stop2" />
    </linearGradient>
  </defs>
  <rect
     width="40"
     height="40"
     rx="8"
     fill="url(#icon-gradient)"
     id="rect2" />
  <g
     transform="matrix(1.0907604,0,0,1.0910508,6.9104952,6.9079096)"
     fill="none"
     stroke="#ffffff"
     stroke-width="2"
     stroke-linecap="round"
     stroke-linejoin="round"
     id="g4">
    <path
       d="m 12.83,2.18 a 2,2 0 0 0 -1.66,0 L 2.6,6.08 a 1,1 0 0 0 0,1.83 l 8.58,3.91 a 2,2 0 0 0 1.66,0 l 8.58,-3.9 a 1,1 0 0 0 0,-1.83 z"
       id="path2" />
    <path
       d="m 22,17.65 -9.17,4.16 a 2,2 0 0 1 -1.66,0 L 2,17.65"
       id="path3" />
    <path
       d="m 22,12.65 -9.17,4.16 a 2,2 0 0 1 -1.66,0 L 2,12.65"
       id="path4" />
  </g>
</svg>
